<svg width="96" height="28" viewBox="0 0 96 28" fill="none" xmlns="http://www.w3.org/2000/svg">
<g clip-path="url(#clip0_2238_12728)">
<g clip-path="url(#clip1_2238_12728)">
<path fill-rule="evenodd" clip-rule="evenodd" d="M27.8996 2.15785C26.8678 0.192253 23.4742 0.809653 20.5412 1.59505C7.79141 6.29345 3.28061 15.8415 1.69581 21.5297C1.61741 21.6725 1.56981 21.8363 1.56561 22.0113C0.938411 24.4249 0.853011 26.0335 0.851611 26.0867C0.827811 26.6649 1.27721 27.1535 1.85541 27.1773C1.87081 27.1787 1.88621 27.1787 1.90161 27.1787C2.46021 27.1787 2.92501 26.7377 2.95021 26.1735C2.95721 26.0027 3.02161 24.8281 3.41781 23.0725C6.92901 22.9241 10.464 21.6165 13.936 19.1749C14.2076 18.9845 14.3728 18.6765 14.3826 18.3461C14.3924 18.0143 14.244 17.6979 13.985 17.4935L12.3834 16.2251L17.639 15.7099C17.8532 15.6889 18.0548 15.6035 18.2186 15.4635C18.332 15.3683 21.0074 13.0779 23.5526 10.4081C27.4236 6.34805 28.7634 3.80425 27.8996 2.15785Z" fill="#335CFF"/>
<path fill-rule="evenodd" clip-rule="evenodd" d="M21.6784 25.0801H12.7044C12.1248 25.0801 11.6544 25.5505 11.6544 26.1301C11.6544 26.7097 12.1248 27.1801 12.7044 27.1801H21.6784C22.258 27.1801 22.7284 26.7097 22.7284 26.1301C22.7284 25.5505 22.258 25.0801 21.6784 25.0801Z" fill="#335CFF"/>
</g>
<path d="M43.836 23.615C43.2687 23.615 42.8623 23.4923 42.617 23.247C42.3717 22.9863 42.249 22.5033 42.249 21.798C42.249 21.3227 42.295 20.7477 42.387 20.073C42.479 19.3983 42.64 18.3787 42.87 17.014C42.9007 16.83 43.0233 16.0863 43.238 14.783C43.4527 13.4643 43.6443 12.0843 43.813 10.643C43.9663 9.41633 44.043 8.49633 44.043 7.883C44.043 7.193 43.79 6.848 43.284 6.848C42.9007 6.848 42.4177 7.055 41.835 7.469C41.2677 7.86767 40.6543 8.51167 39.995 9.401C39.7803 9.69233 39.5427 9.838 39.282 9.838C39.0673 9.838 38.8757 9.73833 38.707 9.539C38.5537 9.32433 38.477 9.08667 38.477 8.826C38.477 8.56533 38.523 8.32 38.615 8.09C38.707 7.84467 38.8757 7.55333 39.121 7.216C39.8723 6.18867 40.708 5.399 41.628 4.847C42.548 4.27967 43.514 3.996 44.526 3.996C45.3693 3.996 45.998 4.25667 46.412 4.778C46.8413 5.29933 47.056 6.05833 47.056 7.055C47.056 7.94433 46.9333 9.23233 46.688 10.919C47.4547 8.64967 48.4283 6.93233 49.609 5.767C50.7897 4.58633 52.1773 3.996 53.772 3.996C55.0293 3.996 55.9723 4.35633 56.601 5.077C57.245 5.78233 57.567 6.733 57.567 7.929C57.567 8.60367 57.4673 9.424 57.268 10.39L55.865 16.968C55.7117 17.7347 55.635 18.394 55.635 18.946C55.635 19.59 55.7807 20.073 56.072 20.395C56.3787 20.717 56.8003 20.878 57.337 20.878C57.843 20.878 58.3337 20.7093 58.809 20.372C59.2997 20.0347 59.8747 19.475 60.534 18.693C60.718 18.4783 60.925 18.371 61.155 18.371C61.3543 18.371 61.5077 18.463 61.615 18.647C61.7377 18.831 61.799 19.084 61.799 19.406C61.799 20.004 61.6533 20.4793 61.362 20.832C60.5647 21.798 59.775 22.5033 58.993 22.948C58.211 23.3927 57.3907 23.615 56.532 23.615C55.2287 23.615 54.209 23.2317 53.473 22.465C52.737 21.683 52.369 20.6403 52.369 19.337C52.369 18.831 52.4073 18.279 52.484 17.681C52.576 17.083 52.7217 16.324 52.921 15.404L53.841 11.195C53.8717 11.057 53.9253 10.8117 54.002 10.459C54.0787 10.1063 54.14 9.77667 54.186 9.47C54.232 9.148 54.255 8.83367 54.255 8.527C54.255 8.03633 54.117 7.64533 53.841 7.354C53.565 7.06267 53.174 6.917 52.668 6.917C51.748 6.917 50.828 7.40767 49.908 8.389C48.988 9.37033 48.137 10.9573 47.355 13.15C46.573 15.3273 45.9597 18.118 45.515 21.522C45.4077 22.304 45.2467 22.8483 45.032 23.155C44.8327 23.4617 44.434 23.615 43.836 23.615ZM71.2012 16.439C71.4005 16.439 71.5538 16.5387 71.6611 16.738C71.7685 16.9373 71.8222 17.1903 71.8222 17.497C71.8222 18.233 71.5998 18.67 71.1552 18.808C70.2352 19.13 69.2231 19.314 68.1191 19.36C67.8278 20.648 67.2528 21.683 66.3941 22.465C65.5355 23.2317 64.5618 23.615 63.4731 23.615C62.5531 23.615 61.7635 23.3927 61.1041 22.948C60.4601 22.5033 59.9695 21.913 59.6321 21.177C59.2948 20.441 59.1261 19.6437 59.1261 18.785C59.1261 17.6197 59.3485 16.5847 59.7931 15.68C60.2378 14.76 60.8511 14.047 61.6331 13.541C62.4151 13.0197 63.2815 12.759 64.2321 12.759C65.3975 12.759 66.3328 13.1653 67.0381 13.978C67.7588 14.7753 68.1805 15.7643 68.3031 16.945C69.0238 16.899 69.8825 16.7457 70.8792 16.485C71.0018 16.4543 71.1092 16.439 71.2012 16.439ZM63.6571 21.177C64.1478 21.177 64.5695 20.9777 64.9221 20.579C65.2901 20.1803 65.5355 19.6053 65.6581 18.854C65.1828 18.532 64.8148 18.1103 64.5541 17.589C64.3088 17.0677 64.1861 16.5157 64.1861 15.933C64.1861 15.6877 64.2091 15.4423 64.2551 15.197H64.1401C63.5268 15.197 63.0131 15.496 62.5991 16.094C62.2005 16.6767 62.0011 17.5047 62.0011 18.578C62.0011 19.4213 62.1621 20.0653 62.4841 20.51C62.8215 20.9547 63.2125 21.177 63.6571 21.177ZM80.2301 18.371C80.4294 18.371 80.5828 18.463 80.6901 18.647C80.8128 18.831 80.8741 19.084 80.8741 19.406C80.8741 20.0193 80.7284 20.4947 80.4371 20.832C79.7778 21.6447 79.0571 22.3117 78.2751 22.833C77.4931 23.3543 76.5961 23.615 75.5841 23.615C72.4561 23.615 70.8921 21.4147 70.8921 17.014C70.8921 16.3393 70.9151 15.657 70.9611 14.967H70.0641C69.6041 14.967 69.2898 14.8827 69.1211 14.714C68.9678 14.5453 68.8911 14.277 68.8911 13.909C68.8911 13.0503 69.2361 12.621 69.9261 12.621H71.2371C71.4978 10.9343 71.8964 9.39333 72.4331 7.998C72.9698 6.60267 73.6138 5.491 74.3651 4.663C75.1318 3.835 75.9521 3.421 76.8261 3.421C77.4701 3.421 77.9761 3.70467 78.3441 4.272C78.7121 4.83933 78.8961 5.55233 78.8961 6.411C78.8961 8.78767 77.8994 10.8577 75.9061 12.621H78.4821C78.7274 12.621 78.9038 12.6747 79.0111 12.782C79.1184 12.8893 79.1721 13.0887 79.1721 13.38C79.1721 14.438 78.3058 14.967 76.5731 14.967H73.7671C73.7364 15.7337 73.7211 16.3317 73.7211 16.761C73.7211 18.3557 73.9051 19.475 74.2731 20.119C74.6564 20.763 75.2544 21.085 76.0671 21.085C76.7264 21.085 77.3091 20.8857 77.8151 20.487C78.3211 20.0883 78.9191 19.4903 79.6091 18.693C79.7931 18.4783 80.0001 18.371 80.2301 18.371ZM76.2051 5.629C75.9751 5.629 75.7144 5.92033 75.4231 6.503C75.1471 7.07033 74.8788 7.86767 74.6181 8.895C74.3728 9.907 74.1658 11.034 73.9971 12.276C74.9018 11.494 75.5764 10.62 76.0211 9.654C76.4811 8.67267 76.7111 7.78333 76.7111 6.986C76.7111 6.08133 76.5424 5.629 76.2051 5.629ZM88.7994 18.371C88.9987 18.371 89.152 18.463 89.2594 18.647C89.382 18.831 89.4434 19.084 89.4434 19.406C89.4434 20.0193 89.2977 20.4947 89.0064 20.832C88.439 21.522 87.634 22.1583 86.5914 22.741C85.564 23.3237 84.46 23.615 83.2794 23.615C81.6694 23.615 80.4197 23.178 79.5304 22.304C78.641 21.43 78.1964 20.234 78.1964 18.716C78.1964 17.658 78.4187 16.6767 78.8634 15.772C79.308 14.852 79.9214 14.1237 80.7034 13.587C81.5007 13.0503 82.3977 12.782 83.3944 12.782C84.2837 12.782 84.9967 13.0503 85.5334 13.587C86.07 14.1083 86.3384 14.8213 86.3384 15.726C86.3384 16.784 85.955 17.6963 85.1884 18.463C84.437 19.2143 83.1567 19.8123 81.3474 20.257C81.7307 20.9623 82.459 21.315 83.5324 21.315C84.2224 21.315 85.0044 21.0773 85.8784 20.602C86.7677 20.1113 87.5344 19.475 88.1784 18.693C88.3624 18.4783 88.5694 18.371 88.7994 18.371ZM83.0034 15.036C82.436 15.036 81.953 15.3657 81.5544 16.025C81.171 16.6843 80.9794 17.4817 80.9794 18.417V18.463C81.884 18.2483 82.597 17.9263 83.1184 17.497C83.6397 17.0677 83.9004 16.5693 83.9004 16.002C83.9004 15.7107 83.816 15.4807 83.6474 15.312C83.494 15.128 83.2794 15.036 83.0034 15.036ZM91.3887 24.121C90.5913 24.121 89.978 23.937 89.5487 23.569C89.1347 23.201 88.9277 22.787 88.9277 22.327C88.9277 21.9283 89.0733 21.5833 89.3647 21.292C89.656 21.0007 90.0853 20.855 90.6527 20.855C90.852 20.855 91.082 20.878 91.3427 20.924C91.6187 20.9547 91.8257 20.9777 91.9637 20.993C91.9483 20.5943 91.8563 20.2187 91.6877 19.866C91.5343 19.5133 91.335 19.176 91.0897 18.854C90.8443 18.5167 90.6143 18.2253 90.3997 17.98C89.9243 18.8847 89.449 19.636 88.9737 20.234C88.5137 20.832 88.0077 21.3993 87.4557 21.936C87.1797 22.212 86.8883 22.35 86.5817 22.35C86.3363 22.35 86.137 22.2657 85.9837 22.097C85.8303 21.913 85.7537 21.6907 85.7537 21.43C85.7537 21.1233 85.861 20.8397 86.0757 20.579L86.3747 20.211C87.218 19.1683 87.8543 18.3097 88.2837 17.635C88.5597 17.1903 88.8357 16.6613 89.1117 16.048C89.403 15.4347 89.7787 14.599 90.2387 13.541C90.53 12.8663 91.1357 12.529 92.0557 12.529C92.485 12.529 92.784 12.5673 92.9527 12.644C93.1213 12.7207 93.2057 12.8433 93.2057 13.012C93.2057 13.104 93.175 13.2497 93.1137 13.449C93.0523 13.6483 92.968 13.8477 92.8607 14.047C92.5847 14.599 92.4467 15.0667 92.4467 15.45C92.4467 15.68 92.5233 15.933 92.6767 16.209C92.8453 16.485 93.0983 16.83 93.4357 17.244C93.9263 17.888 94.2943 18.44 94.5397 18.9C94.8003 19.3447 94.9307 19.8353 94.9307 20.372C94.9307 21.016 94.7773 21.6293 94.4707 22.212C94.1793 22.7793 93.7653 23.2393 93.2287 23.592C92.692 23.9447 92.0787 24.121 91.3887 24.121Z" fill="white"/>
</g>
<defs>
<clipPath id="clip0_2238_12728">
<rect width="95" height="28" fill="white" transform="translate(0.5)"/>
</clipPath>
<clipPath id="clip1_2238_12728">
<rect width="28" height="28" fill="white" transform="translate(0.5)"/>
</clipPath>
</defs>
</svg>
